{"title":"Glastonbury 2016 - Protoje","uid":15411896,"size":1068815839,"categoryP":"video","categoryS":"tv_shows","magnet":"?xt=urn:btih:f8e8006c0fc03f7f78dfcb369def6f21c2e1941f&amp;dn=Glastonbury+2016+-+Protoje&amp;tr=udp%3A%2F%2Ftracker.leechers-paradise.org%3A6969&amp;tr=udp%3A%2F%2Fzer0day.ch%3A1337&amp;tr=udp%3A%2F%2Fopen.demonii.com%3A1337&amp;tr=udp%3A%2F%2Ftracker.coppersurfer.tk%3A6969&amp;tr=udp%3A%2F%2Fexodus.desync.com%3A6969","seeders":1,"leechers":0,"uploader":"RoaElson","files":2,"time":1469563487,"description":"\nGlastonbury 2016: Protoje\r\n\r\nJamaica's Protoje delivers a smooth blend of reggae, ska and rock steady.\r\n\r\nFirst shown: 24 Jun 2016\r\nDuration: 59 minutes\r\n\r\nSet List on West Holts Stage on 24 Jun 2016 at Worthy Farm, Pilton:-\r\n\r\nI&amp;I\r\nResist Not Evil\r\nProtection\r\nCriminal\r\nCan't Feel No Way\r\nSudden Flight\r\nRasta Love\r\nStylin'\r\nHail Rastafari\r\nWho Knows\r\nKingston Be Wise\r\n\r\nProtoje Biography\r\nOje Ken Ollivierre popularly known as Protoje, is a contemporary reggae singer, and songwriter from Jamaica. His mother is Jamaican singer, Lorna Bennett, best known for her 1972 rendition of &quot;Breakfast in Bed&quot;. His father is a former calypso king from the island nation of Saint Vincent and the Grenadines.\r\n\r\n\r\nMedia Info:-\r\n\r\nGeneral\r\nFormat : MPEG-4\r\nFormat profile : Base Media\r\nCodec ID : isom (isom/iso2/avc1/mp41)\r\nFile size : 1 018 MiB\r\nDuration : 59mn 9s\r\nOverall bit rate mode : Variable\r\nOverall bit rate : 2 407 Kbps\r\n\r\nVideo\r\nID : 1\r\nFormat : AVC\r\nFormat/Info : Advanced Video Codec\r\nFormat profile :   \r\nFormat settings, CABAC : Yes\r\nFormat settings, ReFrames : 2 frames\r\nCodec ID : avc1\r\nCodec ID/Info : Advanced Video Coding\r\nDuration : 59mn 9s\r\nBit rate mode : Variable\r\nBit rate : 2 308 Kbps\r\nMaximum bit rate : 3 500 Kbps\r\nWidth : 1 280 pixels\r\nHeight : 720 pixels\r\nDisplay aspect ratio : 16:9\r\nFrame rate mode : Constant\r\nFrame rate : 25.000 fps\r\nColor space : YUV\r\nChroma subsampling : 4:2:0\r\nBit depth : 8 bits\r\nScan type : Progressive\r\nBits/(Pixel*Frame) : 0.100\r\nStream size : 976 MiB (96%)\r\n\r\nAudio\r\nID : 2\r\nFormat : AAC\r\nFormat/Info : Advanced Audio Codec\r\nFormat profile : LC\r\nCodec ID : 40\r\nDuration : 59mn 9s\r\nBit rate mode : Constant\r\nBit rate : 93.5 Kbps\r\nChannel(s) : 2 channels\r\nChannel positions : Front: L R\r\nSampling rate : 48.0 KHz\r\nFrame rate : 46.875 fps (1024 spf)\r\nCompression mode : Lossy\r\nStream size : 39.5 MiB (4%)\r\nDefault : Yes\r\nAlternate group : 1","torrent":{"xt":"urn:btih:f8e8006c0fc03f7f78dfcb369def6f21c2e1941f","amp;dn":"Glastonbury+2016+-+Protoje","amp;tr":["udp%3A%2F%2Ftracker.leechers-paradise.org%3A6969","udp%3A%2F%2Fzer0day.ch%3A1337","udp%3A%2F%2Fopen.demonii.com%3A1337","udp%3A%2F%2Ftracker.coppersurfer.tk%3A6969","udp%3A%2F%2Fexodus.desync.com%3A6969"],"infoHash":"f8e8006c0fc03f7f78dfcb369def6f21c2e1941f","infoHashBuffer":{"type":"Buffer","data":[248,232,0,108,15,192,63,127,120,223,203,54,157,239,111,33,194,225,148,31]},"announce":[],"urlList":[]}}